<svg width="28" height="32" viewBox="0 0 28 32" xmlns="http://www.w3.org/2000/svg" xmlns:xlink="http://www.w3.org/1999/xlink">
    <defs>
        <linearGradient x1="33.621%" y1="0%" x2="1055.858%" y2="50%" id="2pcvky71ca">
            <stop stop-color="#FF7E3B" offset="0%"/>
            <stop stop-color="#FF3B6F" offset="100%"/>
        </linearGradient>
        <linearGradient x1="54.464%" y1="0%" x2="542.65%" y2="100%" id="t9n3zcklob">
            <stop stop-color="#FF7E3B" offset="0%"/>
            <stop stop-color="#FF3B6F" offset="100%"/>
        </linearGradient>
        <linearGradient x1="27.572%" y1=".699%" x2="1427.355%" y2="50%" id="w018tr6zge">
            <stop stop-color="#FF7E3B" offset="0%"/>
            <stop stop-color="#FF3B6F" offset="100%"/>
        </linearGradient>
        <linearGradient x1="50%" y1="-7.739%" x2="50%" y2="95.109%" id="qvrcign9sf">
            <stop stop-color="#FF7E3B" offset="0%"/>
            <stop stop-color="#FF3B6F" offset="100%"/>
        </linearGradient>
        <path d="M.05 23.205 0 9.073a1.868 1.868 0 0 1 .91-1.608L13.166.128a.893.893 0 0 1 .91-.006l13.25 7.709a.014.014 0 0 1 .02.012l-.013 1.574a.934.934 0 0 1-.464.8l-11.82 6.89v14.39a1.878 1.878 0 0 1-2.229.246L.977 24.81a1.868 1.868 0 0 1-.926-1.605zm20.367-16.09L9.423 13.108v13.554l3.122 1.965.016-13.818 10.82-6.239a.239.239 0 0 0-.011-.419l-2.078-1.051a.942.942 0 0 0-.875.013z" id="dsd7vob6lc"/>
    </defs>
    <g fill="none" fill-rule="evenodd">
        <path d="m19.154 18.453 6.921-3.948a.942.942 0 0 1 .938.002c.29.167.467.475.467.809v2.058c0 .33-.175.636-.46.805l-6.922 4.078a.942.942 0 0 1-.943.008.934.934 0 0 1-.473-.812v-2.19c0-.334.18-.644.472-.81z" fill="#FF5656" fill-rule="nonzero"/>
        <path d="m24.792 25.68-.035-9.946-3.488 1.509.077 9.352a.934.934 0 0 0 .473.804c.29.165.646.164.935-.003l1.57-.905a.934.934 0 0 0 .468-.812z" fill="#FF5656" fill-rule="nonzero"/>
        <g fill-rule="nonzero">
            <path d="M.05 23.205 0 9.073a1.868 1.868 0 0 1 .91-1.608L13.166.128a.893.893 0 0 1 .91-.006l13.25 7.709a.014.014 0 0 1 .02.012l-.013 1.574a.934.934 0 0 1-.464.8l-11.82 6.89v14.39a1.878 1.878 0 0 1-2.229.246L.977 24.81a1.868 1.868 0 0 1-.926-1.605zm20.367-16.09L9.423 13.108v13.554l3.122 1.965.016-13.818 10.82-6.239a.239.239 0 0 0-.011-.419l-2.078-1.051a.942.942 0 0 0-.875.013z" fill="url(#2pcvky71ca)"/>
            <path d="M.05 23.205 0 9.073a1.868 1.868 0 0 1 .91-1.608L13.166.128a.893.893 0 0 1 .91-.006l13.25 7.709a.014.014 0 0 1 .02.012l-.013 1.574a.934.934 0 0 1-.464.8l-11.82 6.89v14.39a1.878 1.878 0 0 1-2.229.246L.977 24.81a1.868 1.868 0 0 1-.926-1.605zm20.367-16.09L9.423 13.108v13.554l3.122 1.965.016-13.818 10.82-6.239a.239.239 0 0 0-.011-.419l-2.078-1.051a.942.942 0 0 0-.875.013z" fill="url(#t9n3zcklob)"/>
        </g>
        <g>
            <mask id="tlvyii02fd" fill="#fff">
                <use xlink:href="#dsd7vob6lc"/>
            </mask>
            <g mask="url(#tlvyii02fd)">
                <path fill="url(#w018tr6zge)" fill-rule="nonzero" d="m27.34 0 .294 1.954-12.482 7.27V27.44L.063 18.553 0 .19 12.556 6.99l1.435.782z" transform="translate(.006 7.819)"/>
                <path fill="url(#qvrcign9sf)" fill-rule="nonzero" d="m27.34 0 .294 1.954-12.482 7.27V27.44L.063 18.553 0 .19 12.556 6.99l1.435.782z" transform="translate(.006 7.819)"/>
            </g>
        </g>
    </g>
</svg>
