<?xml version="1.0" encoding="UTF-8"?>
<svg width="26px" height="26px" viewBox="0 0 26 26" version="1.1" xmlns="http://www.w3.org/2000/svg" xmlns:xlink="http://www.w3.org/1999/xlink">
    <title>编组 16</title>
    <g id="页面-1" stroke="none" stroke-width="1" fill="none" fill-rule="evenodd">
        <g id="编组-16">
            <path d="M17.2719361,14.4176456 L23.0638027,11.2009513 C23.2574732,11.0933775 23.4953549,11.0941848 23.6882491,11.2030705 C23.8811433,11.3119561 23.9999043,11.5124678 24,11.7294195 L24,13.6097537 C24,13.8252548 23.882894,14.0249335 23.6919462,14.1344246 L17.9000795,17.4571289 C17.7066262,17.5679057 17.4670031,17.5694108 17.2720956,17.4610732 C17.0771881,17.3527357 16.9568508,17.15115 16.9567258,16.9327745 L16.9567258,14.9461138 C16.9567258,14.7277646 17.0770847,14.5258708 17.2722614,14.4176456 L17.2719361,14.4176456 Z" id="路径" fill="#10162F" fill-rule="nonzero"></path>
            <path d="M21.897625,20.0637114 L21.869647,12.2202304 L19.0620311,13.3993158 L19.1254635,20.9219185 C19.1273048,21.1383396 19.2471092,21.3375417 19.4401429,21.4451447 C19.6331767,21.5527477 19.8704194,21.5525749 20.0632873,21.4446906 L21.5840385,20.5934454 C21.7785646,20.4842708 21.8982729,20.2820605 21.897625,20.063395 L21.897625,20.0637114 Z" id="路径" fill="#10162F" fill-rule="nonzero"></path>
            <g id="4z3vqk4a4a-link" transform="translate(2.000000, 0.000000)">
                <g fill="#10162F" fill-rule="nonzero">
                    <path d="M11.2649597,0.0986866674 L21.8679305,6.34775058 C21.8713076,6.3459262 21.8753772,6.34599855 21.8786889,6.34794186 C21.8820006,6.34988516 21.8841952,6.353423 21.8841952,6.35729465 L21.8737858,7.70366712 C21.8719932,7.92696653 21.754076,8.13280099 21.5634549,8.24537552 L12.0433892,13.8665053 L12.0433892,25.5313368 L11.9077415,25.6596881 C11.503068,26.0415436 10.8985857,26.1092574 10.4211461,25.8262157 L0.66036253,20.0392166 C0.278478868,19.8127358 0.0432264181,19.3990357 0.0416525948,18.9511923 L0.0416525948,18.9508632 L7.41961527e-06,7.21461567 C-0.00150939707,6.7679734 0.229632231,6.35354621 0.608315427,6.12395852 L10.5369509,0.103294151 C10.7605439,-0.0327612296 11.0397018,-0.0345279869 11.2649597,0.0986866674 Z M16.39778,5.73462618 L7.54196541,10.6267862 L7.54196541,21.6139886 L10.0395758,23.2065323 L10.0532381,12.0057402 L18.7620196,6.91940762 C18.8129411,6.88982576 18.8437126,6.83436108 18.8422068,6.774975 C18.8405874,6.71558892 18.8069428,6.66185912 18.7545378,6.63506008 L16.9803822,5.72574032 C16.919114,5.69432259 16.8540591,5.67374668 16.7878491,5.66397245 L16.6879967,5.65740736 C16.5879358,5.65893349 16.4882364,5.68471825 16.39778,5.73462618 Z" id="形状结合"></path>
                </g>
                <g transform="translate(7.541965, 5.657335)"></g>
            </g>
            <polygon id="路径" points="0 0 26 0 26 26 0 26"></polygon>
        </g>
    </g>
</svg>