<svg width="1660" height="265" viewBox="0 0 1660 265" xmlns="http://www.w3.org/2000/svg">
    <g fill="#FFF" fill-rule="evenodd">
        <path d="m159.743 151.68 58.09-32.902a7.622 7.622 0 0 1 11.378 6.632v17.345a7.622 7.622 0 0 1-3.772 6.579l-58.091 33.99a7.622 7.622 0 0 1-11.47-6.578v-18.434a7.622 7.622 0 0 1 3.865-6.631z"/>
        <path d="m207.142 211.799-.286-80.098-29.118 12.169.64 75.555a7.622 7.622 0 0 0 11.331 6.593l13.521-7.534a7.622 7.622 0 0 0 3.912-6.685z"/>
        <path d="M.426 192.101 0 75.041a15.243 15.243 0 0 1 7.49-13.18L110.425 1.056a7.574 7.574 0 0 1 7.632-.047l111.123 63.8a.115.115 0 0 1 .172.101l-.105 13.055a7.622 7.622 0 0 1-3.822 6.545l-99.213 57.065.003 119.097-.325.299a15.243 15.243 0 0 1-17.945 1.981l-99.9-57.706a15.243 15.243 0 0 1-7.619-13.144zM176.47 54.695l-97.435 53.799 4.36 2.356-4.36-2.326v119.749l26.177 14.565-.003-120.341.145.075 98.37-56.87-19.88-11.003a7.622 7.622 0 0 0-7.374-.004z"/>
        <g fill-rule="nonzero">
            <path d="M366.68 159.607V67.625H334.95v90.576c0 8.167-1.674 14.092-5.02 17.774-3.348 3.682-7.967 5.523-13.858 5.523-4.954 0-9.473-1.239-13.556-3.716-4.084-2.477-8.134-5.924-12.15-10.343l-19.482 21.69c4.82 5.757 10.946 10.711 18.377 14.862 7.43 4.15 16.635 6.226 27.614 6.226 7.364 0 14.125-1.038 20.284-3.113 6.159-2.075 11.414-5.222 15.766-9.44 4.35-4.217 7.732-9.472 10.142-15.765 2.41-6.292 3.615-13.723 3.615-22.292zM519.715 208.208 485.373 158c8.97-3.347 16.234-8.602 21.79-15.765 5.556-7.163 8.335-16.435 8.335-27.816v-.401c0-14.594-4.653-25.975-13.958-34.142-9.305-8.167-22.326-12.25-39.062-12.25H398.21v140.582h30.929v-44.986h24.3l30.125 44.986h36.15zm-35.547-92.182c0 6.025-2.042 10.845-6.126 14.46-4.083 3.615-9.94 5.423-17.573 5.423h-31.33V95.54h30.728c7.632 0 13.59 1.674 17.874 5.021 4.285 3.347 6.427 8.368 6.427 15.062v.402zM740.631 208.208l-60.25-141.587h-28.518l-60.25 141.587h31.531l12.853-31.53h59.447l12.853 31.53h32.334zm-56.233-58.844h-37.355l18.678-45.589 18.677 45.59zM885.833 185.514l-19.681-19.882c-5.49 5.088-11.013 9.104-16.57 12.05-5.555 2.945-12.35 4.418-20.384 4.418-6.025 0-11.547-1.171-16.568-3.514-5.021-2.343-9.306-5.523-12.854-9.54-3.548-4.017-6.326-8.703-8.334-14.058-2.008-5.356-3.013-11.046-3.013-17.071v-.402c0-6.025 1.005-11.682 3.013-16.97 2.008-5.289 4.82-9.941 8.435-13.958 3.615-4.017 7.933-7.163 12.954-9.44 5.02-2.275 10.476-3.413 16.367-3.413 7.096 0 13.49 1.406 19.18 4.217 5.69 2.812 11.28 6.695 16.77 11.649l19.681-22.695a82.792 82.792 0 0 0-10.443-8.836c-3.75-2.678-7.833-4.954-12.251-6.829-4.418-1.874-9.339-3.347-14.761-4.418-5.423-1.071-11.414-1.607-17.975-1.607-10.845 0-20.752 1.908-29.723 5.724-8.97 3.816-16.67 9.038-23.096 15.665-6.426 6.628-11.447 14.326-15.062 23.096s-5.423 18.175-5.423 28.217v.402c0 10.041 1.808 19.48 5.423 28.317s8.636 16.502 15.062 22.995c6.427 6.494 14.059 11.615 22.895 15.364 8.837 3.749 18.41 5.623 28.72 5.623 6.828 0 12.986-.569 18.476-1.707 5.49-1.138 10.544-2.811 15.163-5.02 4.619-2.21 8.87-4.854 12.753-7.933 3.882-3.08 7.631-6.561 11.246-10.444zM1047.504 208.208l-60.25-141.587h-28.518l-60.25 141.587h31.53l12.854-31.53h59.446l12.854 31.53h32.334zm-56.234-58.844h-37.354l18.677-45.589 18.677 45.59zM1198.73 137.917v-.402c0-9.907-1.807-19.112-5.422-27.614-3.615-8.502-8.736-15.9-15.364-22.192-6.627-6.293-14.526-11.213-23.698-14.761-9.171-3.549-19.246-5.323-30.225-5.323h-54.827v140.583h54.827c10.979 0 21.054-1.807 30.225-5.422 9.172-3.615 17.071-8.569 23.698-14.862 6.628-6.292 11.75-13.723 15.364-22.292 3.615-8.569 5.423-17.807 5.423-27.715zm-32.333.402c0 6.292-1.038 11.983-3.113 17.07-2.076 5.088-4.954 9.506-8.636 13.255-3.682 3.75-8.134 6.628-13.356 8.636-5.221 2.008-10.978 3.013-17.271 3.013h-23.9V95.54h23.9c6.293 0 12.05 1.038 17.271 3.113 5.222 2.075 9.674 4.987 13.356 8.736 3.682 3.75 6.56 8.234 8.636 13.456 2.075 5.222 3.113 10.912 3.113 17.07v.403zM1333.289 208.208v-27.514h-76.317v-29.522h66.275v-27.514h-66.275V95.14h75.312V67.625h-106.04v140.583zM1501.386 208.208V67.625h-33.339l-36.953 59.447-36.953-59.447h-33.338v140.583h30.325V117.03l39.163 59.447h.803l39.564-60.05v91.781zM1659.642 67.625h-35.146l-34.141 56.434-33.54-56.434h-36.15l54.025 85.154v55.43h30.928v-56.033z"/>
        </g>
    </g>
</svg>
